<svg width="133" height="36" viewBox="0 0 133 36" fill="none" xmlns="http://www.w3.org/2000/svg">
<g id="Logo Full">
<path id="Vector" d="M122.169 33.8105H64.335V34.4542H122.169V33.8105Z" fill="#FCBA19"/>
<path id="Vector_2" d="M8.10518 29.305C16.2948 29.305 27.6927 33.7303 35.9667 33.7303C41.8767 33.7303 47.6179 32.2015 50.9106 30.0291C53.0213 16.9946 43.6497 4.84522 30.0567 2.83372C16.4636 0.822229 3.63045 9.75326 1.51973 22.7073C1.09759 25.1211 1.09759 27.6153 1.51973 30.0291C3.71488 29.6268 5.91003 29.3854 8.10518 29.305Z" fill="white"/>
<path id="Vector_3" d="M42.2988 20.5343L43.312 20.9366L45.5071 19.4883L42.2988 20.5343Z" fill="#FCBA19"/>
<path id="Vector_4" d="M5.48769 18.9259L2.87039 18.0409L3.03925 17.719L5.90983 18.6845L6.33198 18.4432H6.50083L3.29254 17.0753L3.46139 16.7535L10.5534 19.4891H10.8067L3.71468 16.1098L3.88354 15.788L11.3977 19.0868H11.4821L4.22125 15.1443L4.39011 14.8225L14.8593 20.2937L15.197 19.7305C12.6641 17.4776 10.0468 15.3857 7.34512 13.4547C10.2157 15.2248 13.1707 16.834 16.2102 18.2822L16.6323 17.719L7.76727 10.3167L8.02055 10.0753L15.197 15.9489L8.52713 9.59259L8.78041 9.35121L16.2946 16.2707L9.28698 8.86845L9.54027 8.62707L16.0413 15.2248L10.1313 8.14431L10.3846 7.90293L17.9832 16.673L18.5742 16.2707C17.1389 13.2937 15.5347 10.4776 13.7617 7.66155C15.7036 10.3167 17.8143 12.8914 20.0095 15.3052L20.6849 14.9834L15.2814 4.92592L15.6191 4.765L20.0095 12.811L16.2946 4.44316L16.6323 4.28224L20.8537 13.3742L17.3077 4.04086H17.6454L21.0226 12.4891L18.3209 3.71902H18.6586L22.2046 14.5006L22.9645 14.3397C22.7956 11.0409 22.4579 7.74201 21.8669 4.52362C22.6267 7.66155 23.5555 10.719 24.653 13.7765H25.3285L24.3997 2.51213H24.7375L25.6662 11.5236L25.4973 2.51213H25.835L26.1728 12.4891L26.5105 2.51213H27.017L26.8482 11.5236L27.6925 2.51213H28.0302L27.1015 13.7765H27.8613C28.9589 10.7995 29.8876 7.74201 30.6475 4.60408C30.1409 7.74201 29.7188 10.9604 29.5499 14.1788L30.2253 14.4202L33.7714 3.63856H34.1091L31.4073 12.4087L34.7845 3.9604H35.1222L31.5762 13.4547L35.7976 4.3627L36.1354 4.52362L32.5049 12.811L36.8952 4.765L37.2329 4.92592L31.9139 14.9834L32.5893 15.3052C34.7845 12.8914 36.8952 10.3972 38.8371 7.74201C37.0641 10.4776 35.5444 13.3742 34.1091 16.2707L34.7001 16.7535L42.0454 7.98339L42.2987 8.22477L36.3886 15.3052L42.8897 8.70753L43.143 8.94891L36.1354 16.3512L43.6495 9.43167L43.9028 9.67305L37.2329 16.0294L44.4094 10.1558L44.6627 10.3972L35.8821 17.7995L36.3042 18.2822C39.3437 16.834 42.2142 15.2248 45.0848 13.4547C42.3831 15.3857 39.7658 17.4776 37.3174 19.6501L37.7395 20.2937L48.0398 14.9029L48.2087 15.2248L39.9347 19.6501L48.5464 15.8685L48.7153 16.1903L40.6945 19.8914H40.8634L48.9685 16.834L49.1374 17.1558L41.5388 20.2133H41.7077L46.7734 18.6041L47.5333 18.1213L47.7865 18.2822L49.4751 17.7995L49.644 18.1213L48.2087 18.6041L50.235 20.1328L50.9104 20.4547C47.6177 7.50063 33.9402 -0.464885 20.3472 2.59259C10.8911 4.765 3.54582 11.9259 1.51953 21.0179L1.85725 20.857H2.0261L5.48769 18.9259Z" fill="#FCBA19"/>
<path id="Vector_5" d="M1.26632 30.5112C3.54589 30.1089 5.82547 29.8675 8.10505 29.787C16.2947 29.787 27.6925 34.2123 35.9666 34.2123C42.0455 34.2123 47.9555 32.6031 51.1638 30.3503C51.7548 27.0514 51.6703 23.7526 50.8261 20.5342L47.3645 18.6836L43.3119 21.3388L40.6102 20.3732C39.6814 20.7755 34.0247 24.3962 34.0247 24.3962L31.8296 22.8675L29.55 22.4652L26.4261 20.2928L22.8801 22.6261L18.7431 24.7985C18.5742 24.7985 13.9306 21.2583 13.9306 21.2583L11.8199 19.1664L9.96249 20.0514H9.87806L8.44277 19.6491L6.75419 18.7641L1.5196 21.0169H1.43517C0.759743 24.1549 0.675314 27.3732 1.26632 30.5112Z" fill="#4C81AF"/>
<path id="Vector_6" d="M84.6819 17.5575H84.1753C84.0064 17.7989 84.0064 18.0403 84.1753 18.2817H88.2279C88.3123 18.2012 88.3967 18.0403 88.3967 17.8794C88.3967 17.7184 88.3123 17.638 88.2279 17.5575H87.7213C87.0459 17.5575 87.0459 17.3966 87.0459 16.1092V11.6035C87.0459 10.3161 87.0459 9.9943 87.7213 9.9943H88.1435C88.3123 9.9943 88.3967 9.9943 88.3967 9.75292C88.3967 9.51154 88.2279 9.43108 88.059 9.43108H84.1753C84.0909 9.51154 84.0064 9.67246 84.0064 9.83338C84.0064 9.91384 84.0909 9.9943 84.1753 9.9943H84.6819C85.3573 9.9943 85.3573 10.2357 85.3573 11.4426V16.0288C85.3573 17.4771 85.3573 17.4771 84.6819 17.5575ZM74.6348 17.5575H74.0438C73.875 17.7989 73.875 18.0403 74.0438 18.2817H78.4341C78.603 18.0403 78.603 17.7989 78.4341 17.5575H77.6743C77.0833 17.5575 77.0833 17.3161 77.0833 16.7529V14.1782H77.2521C78.2653 14.1782 78.2653 14.1782 78.6874 14.9828L80.376 17.7989C80.5449 18.1207 80.7981 18.2817 81.1359 18.2817H83.1621C83.331 18.1207 83.4154 17.7989 83.2466 17.5575H82.5711C82.2334 17.4771 82.149 17.3161 81.8957 16.9943L80.5449 14.8219L80.0383 13.9368C81.2203 13.7759 82.0646 12.8104 82.149 11.684C82.149 9.9943 80.376 9.43108 78.8563 9.43108H74.0438V9.592C74.0438 9.75292 74.0438 9.9943 74.2127 10.0748H74.7193C75.4791 10.1552 75.4791 10.1552 75.4791 10.8794V16.592C75.3103 17.4771 75.2258 17.5575 74.6348 17.5575ZM77.0833 10.2357H78.0964C79.1096 10.2357 80.1227 10.7184 80.1227 11.7644C80.1227 12.2472 79.9538 12.7299 79.5317 12.9713C79.0251 13.2127 78.5186 13.3736 77.9276 13.3736H77.0833V10.2357ZM130.78 29.7069H130.442C130.105 29.6265 130.02 29.2242 129.851 28.8219V28.661L126.896 21.9828C126.896 21.9828 126.727 21.5 126.474 21.5C126.221 21.5 125.968 21.9023 125.883 22.0633L123.013 28.9023C122.844 29.3046 122.675 29.7069 122.337 29.7069H121.577C121.408 29.9483 121.324 30.1897 121.493 30.4311H124.786C124.954 30.1897 124.954 29.9483 124.786 29.7069H124.195C123.772 29.7069 123.772 29.6265 123.772 29.4656C123.772 29.3046 123.857 29.2242 123.941 29.0633L124.363 28.0173C124.363 28.0173 124.532 27.5345 124.786 27.5345H127.065C127.487 27.5345 127.572 28.0977 127.572 28.0977L127.909 28.9828L128.163 29.546C128.163 29.6265 128.078 29.7874 127.572 29.7874H126.812C126.643 30.0288 126.643 30.2702 126.812 30.5115H130.864C131.118 30.5115 131.118 30.3506 131.118 30.0288C131.118 29.8679 131.033 29.7874 130.864 29.7874L130.78 29.7069ZM126.812 26.4885H124.786L125.799 23.9138L126.896 26.4885H126.812ZM88.8189 11.2817C88.9033 11.4426 89.0722 11.523 89.241 11.523C89.241 11.523 89.4943 11.6035 89.5787 11.4426C89.7476 11.1207 89.9165 10.7989 90.0853 10.5575C90.5075 10.2357 91.014 10.0748 91.5206 10.1552H92.4493V16.7529C92.4493 17.3161 92.4493 17.5575 91.9427 17.5575H91.1829C91.014 17.7989 91.014 18.0403 91.1829 18.2817H95.4043C95.4888 18.2012 95.5732 18.0403 95.5732 17.8794C95.5732 17.7184 95.4888 17.638 95.4043 17.5575H94.8133C94.2223 17.5575 94.2223 17.3161 94.2223 16.3506V10.1552H95.4043C95.9109 10.0748 96.333 10.3161 96.6708 10.638C96.8396 10.7989 96.9241 11.1207 96.9241 11.3621H97.7683C97.7683 10.7989 97.7683 10.1552 97.9372 9.592V9.27016H97.1773C97.0085 9.51154 97.0085 9.51154 96.333 9.51154H91.014C90.3386 9.51154 90.1697 9.51154 90.0853 9.27016H89.3255C89.241 9.83338 89.0722 10.3966 88.8189 10.9598C88.8189 11.0403 88.8189 11.2012 88.8189 11.2817ZM104.269 18.1207C105.114 18.4426 105.958 18.523 106.802 18.523H106.971C109.166 18.523 110.602 17.3966 110.602 15.8679C110.602 14.3391 109.926 13.8564 108.406 13.1322L107.14 12.4886C106.549 12.1667 105.874 11.684 105.874 11.1207C105.874 10.5575 106.465 9.91384 107.562 9.91384H107.815C108.66 9.91384 109.335 10.4771 109.504 11.2012H110.433V11.0403C110.433 10.4771 110.348 9.91384 110.095 9.35062H109.335L107.815 9.1897C105.367 9.27016 104.269 10.4771 104.354 11.7644C104.523 12.8104 105.198 13.7759 106.296 14.1782L107.815 14.9828C108.913 15.546 108.997 16.1092 108.997 16.592C108.997 17.0748 108.491 17.8794 107.224 17.8794C106.127 17.8794 105.114 17.2357 104.776 16.1897C104.692 16.0288 104.607 15.9483 104.438 15.9483H103.847C103.847 16.592 104.016 17.2357 104.269 17.7989V18.1207ZM99.2036 17.638H98.8659C98.6971 17.7989 98.6971 18.1207 98.8659 18.2817H102.918C103.003 18.2012 103.087 18.0403 103.087 17.8794C103.087 17.7184 103.003 17.638 102.918 17.5575H102.412C101.736 17.4771 101.736 17.4771 101.736 16.1897V11.684C101.736 10.3161 101.736 10.0748 102.412 10.0748H102.834C103.003 9.9943 103.172 9.9943 103.087 9.75292C103.087 9.592 102.918 9.43108 102.75 9.43108H98.8659C98.7815 9.51154 98.6971 9.67246 98.6971 9.83338C98.6971 9.9943 98.7815 9.9943 98.8659 10.0748H99.3725C100.048 10.0748 100.048 10.1552 100.048 11.523V16.0288C99.9635 17.4771 99.9635 17.4771 99.2881 17.5575L99.2036 17.638ZM111.699 10.1552H112.206C112.712 10.1552 112.797 10.2357 112.797 11.6035V16.5115C112.797 17.4771 112.712 17.5575 112.206 17.5575H111.699C111.53 17.7989 111.53 18.0403 111.699 18.2817H115.583C115.667 18.2012 115.752 18.0403 115.752 17.8794C115.752 17.7184 115.667 17.638 115.583 17.5575H115.161C114.739 17.5575 114.57 17.3966 114.57 16.1897V14.4196C114.57 14.3391 114.57 14.3391 114.57 14.2587H119.467C119.467 14.3391 119.467 16.5115 119.467 16.5115C119.467 16.5115 119.467 17.5575 118.876 17.5575H118.453C118.285 17.7989 118.285 18.0403 118.453 18.2817H122.253C122.337 18.2012 122.422 18.0403 122.422 17.8794C122.422 17.7184 122.337 17.638 122.253 17.5575H121.746C121.155 17.5575 121.155 17.4771 121.155 16.2702V11.523C121.155 10.2357 121.155 10.2357 121.746 10.1552H122.084C122.253 10.1552 122.422 9.91384 122.337 9.75292C122.337 9.592 122.168 9.43108 121.999 9.43108H118.369C118.285 9.51154 118.2 9.592 118.2 9.75292C118.2 9.91384 118.285 10.0748 118.369 10.1552H118.707C119.382 10.1552 119.382 10.2357 119.382 11.523C119.382 11.523 119.382 13.1322 119.382 13.2127H114.485C114.485 13.1322 114.485 11.6035 114.485 11.6035C114.485 10.3161 114.485 10.1552 114.992 10.1552H115.414C115.667 10.1552 115.667 9.9943 115.667 9.75292C115.667 9.51154 115.667 9.43108 115.33 9.43108H111.699C111.615 9.51154 111.53 9.592 111.53 9.75292C111.53 9.91384 111.615 10.0748 111.699 10.1552ZM120.311 22.2242H120.733C120.902 22.2242 120.986 22.0633 120.986 21.9023C120.986 21.7414 120.733 21.5805 120.564 21.5805H116.596C116.427 21.7414 116.427 21.9023 116.427 22.0633C116.427 22.1437 116.512 22.2242 116.596 22.3046H117.103C117.778 22.3046 117.778 22.3851 117.778 23.8334V28.4196C117.778 29.7069 117.778 29.7069 117.103 29.7874H116.596C116.427 30.0288 116.427 30.2702 116.596 30.5115H120.733C120.817 30.4311 120.902 30.2702 120.902 30.1092C120.902 29.9483 120.817 29.8679 120.733 29.7874H120.226C119.551 29.7069 119.551 29.7069 119.551 28.4196V23.7529C119.551 22.3851 119.551 22.2242 120.058 22.2242H120.311ZM84.513 28.2587H83.8376C83.6687 28.7414 83.331 29.1437 82.9089 29.4656C82.4023 29.6265 81.9801 29.6265 81.4736 29.6265H81.3047C80.7981 29.7069 80.376 29.6265 79.9538 29.3851C79.785 29.2242 79.6161 29.0633 79.6161 28.2587V23.6725C79.6161 22.3851 79.785 22.3046 80.4604 22.3046H80.8826C81.0514 22.3046 81.1359 22.2242 81.1359 21.9023C81.1359 21.7414 80.967 21.5805 80.7981 21.5805H76.6611C76.5767 21.661 76.4923 21.8219 76.4923 21.9828C76.4923 22.1437 76.5767 22.2242 76.6611 22.3046H77.1677C77.9276 22.3046 77.9276 22.3851 77.9276 23.7529V28.4196C77.9276 29.7069 77.9276 29.7874 77.2521 29.7874H76.6611C76.4923 30.0288 76.4923 30.2702 76.6611 30.5115H84.0909C84.3442 29.9483 84.5974 29.3046 84.7663 28.661C84.8507 28.5 84.6819 28.3391 84.513 28.2587ZM75.3947 22.7069C74.3816 21.7414 72.9463 21.1782 71.511 21.2587H71.2577C68.556 21.2587 66.3608 23.3506 66.3608 25.9253C66.3608 26.0058 66.3608 26.0058 66.3608 26.0863C66.3608 28.4196 68.0494 30.6725 71.511 30.6725H71.6798C74.466 30.7529 76.6611 28.661 76.7456 26.0058C76.7456 24.7989 76.3234 23.592 75.3947 22.7069ZM71.6798 29.8679C70.329 29.8679 68.1338 28.9023 68.1338 25.6035C68.1338 22.3046 69.9913 22.0633 71.2577 22.0633C72.5241 22.0633 74.8881 23.7529 74.8881 26.0058V26.4081C74.8037 28.1782 73.875 29.8679 71.6798 29.8679ZM106.971 29.7069H106.465L105.958 29.546C105.874 29.4656 105.789 29.3851 105.789 29.2242V23.0288C105.789 22.7874 105.789 22.6265 105.874 22.3851C105.958 22.2242 106.802 22.2242 106.802 22.2242C106.802 22.2242 106.971 22.1437 106.971 22.0633C106.971 21.9828 107.056 21.661 106.887 21.5H104.692C104.269 21.5 104.185 21.7414 104.101 21.9828L101.145 27.9368L98.6126 21.9828C98.5282 21.661 98.3593 21.5 98.1061 21.5H95.4043L95.151 21.661C95.151 21.9023 95.0666 22.0633 95.3199 22.2242H96.1642C96.333 22.2242 96.4175 22.3851 96.4175 22.7874L96.2486 28.9023C96.1642 29.546 96.0798 29.7069 95.5732 29.7069H94.8978C94.7289 29.9483 94.8133 30.1897 94.9822 30.4311H98.5282C98.6971 30.1897 98.6971 29.9483 98.5282 29.7069H97.8528C97.6839 29.7069 97.4306 29.6265 97.3462 29.4656C97.1773 29.1437 97.1773 28.7414 97.2618 28.3391V23.2702L100.132 30.0288C100.217 30.1897 100.386 30.2702 100.554 30.2702H100.892L104.185 23.4311V28.9023C104.185 29.0633 104.185 29.1437 104.185 29.3046C104.185 29.4656 104.1 29.546 104.016 29.6265L103.509 29.7874H102.834C102.665 30.0288 102.665 30.2702 102.834 30.5115H107.056C107.224 30.2702 107.224 29.9483 106.971 29.7069ZM94.3068 21.5H90.7607C90.5919 21.661 90.5075 21.9023 90.6763 22.1437H91.7739C91.9427 22.3851 91.9427 24.9598 91.9427 26.3276C91.9427 27.6954 90.5919 29.546 89.3255 29.546C88.059 29.546 86.7926 28.5805 86.7926 26.3276V23.3506C86.7926 22.3046 86.7926 22.2242 87.3836 22.2242H87.8902C88.059 22.1437 88.1435 22.0633 88.059 21.8219C87.9746 21.5805 87.9746 21.5 87.8057 21.5H83.922C83.8376 21.5805 83.7531 21.7414 83.7531 21.9023C83.7531 22.0633 83.8376 22.1437 83.922 22.2242H84.513C85.104 22.2242 85.104 22.2242 85.104 23.5115V26.6495C85.0196 27.8564 85.5262 29.0633 86.4549 29.8679C87.2147 30.3506 88.059 30.6725 88.9877 30.6725H89.241C90.3386 30.6725 91.3517 30.2702 92.196 29.6265C93.0403 28.7414 93.1248 27.9368 93.1248 26.3276C93.1248 25.0403 93.2092 23.6725 93.2936 22.3851C93.378 22.3046 93.5469 22.2242 93.7158 22.2242H94.3068C94.4756 22.1437 94.4756 22.0633 94.4756 21.8219C94.4756 21.661 94.3912 21.5805 94.3068 21.5ZM64.9255 8.86786C65.4321 8.86786 65.5165 8.94832 65.5165 10.0748V15.8679C65.5165 17.3966 65.5165 17.3966 64.7567 17.5575H64.2501C64.0812 17.7184 63.9968 17.9598 64.1657 18.2012H68.556C71.6798 18.2012 73.4528 16.9943 73.4528 14.9023C73.3684 13.615 72.3553 12.4886 71.0044 12.3276C71.9331 12.0058 72.5241 11.2012 72.5241 10.2357C72.4397 9.43108 72.0175 8.7874 71.2577 8.3851C70.4134 8.06326 69.5691 7.90234 68.6404 7.90234H68.2182L64.4189 8.06326C64.3345 8.06326 64.1657 8.22418 64.1657 8.30464C64.0812 8.54602 64.1657 8.70694 64.3345 8.86786H64.9255ZM71.511 15.546C71.511 17.0748 70.1601 17.3966 68.9781 17.3966H68.8092C68.4715 17.3966 68.0494 17.3161 67.7961 17.0748C67.5428 16.6725 67.4584 16.1092 67.4584 15.6265V13.3736H68.2182C71.0888 13.2127 71.511 14.7414 71.511 15.546ZM67.4584 8.94832H68.3027C69.4002 8.94832 70.6667 9.43108 70.6667 10.7184C70.6667 12.0058 70.2445 12.3276 68.1338 12.4081H67.4584V9.10924C67.4584 9.02878 67.4584 9.02878 67.4584 8.94832ZM65.5165 27.5345H65.0944C64.6722 28.8219 63.4058 29.6265 62.0549 29.6265H61.8861C59.0999 29.6265 57.2425 27.615 57.2425 24.7184C57.0736 22.3851 59.0155 20.3736 61.4639 20.2127C61.5484 20.2127 61.5484 20.2127 61.6328 20.2127C63.7435 20.2127 64.4189 20.9368 64.7567 22.3046H65.7698C65.6009 21.5805 65.5165 20.7759 65.5165 20.0518V19.8104H64.9255C63.9968 19.569 62.9837 19.4081 61.9705 19.4081H61.6328C60.0286 19.4081 58.5089 19.8908 57.2425 20.7759C55.8916 21.8219 55.0473 23.5115 55.1318 25.2012C55.0473 26.9713 55.9761 28.7414 57.5802 29.7069C58.7622 30.4311 60.1131 30.8334 61.5484 30.8334H61.8016C62.7304 30.8334 63.6591 30.6725 64.5034 30.4311L65.0099 30.2702H65.1788C65.6009 29.546 65.9387 28.8219 66.0231 28.0173C66.0231 27.7759 65.7698 27.5345 65.5165 27.5345ZM114.232 25.4426C115.245 25.0403 115.752 23.9138 115.33 22.9483C115.076 22.3851 114.654 21.9828 114.148 21.8219C113.303 21.5805 112.459 21.5 111.615 21.5H107.984L107.731 21.661C107.647 21.8219 107.647 22.0633 107.815 22.2242H108.491C108.997 22.2242 108.997 22.3046 108.997 23.2702V28.3391C108.997 29.6265 108.997 29.6265 108.406 29.7069H107.984C107.9 29.7874 107.815 29.8679 107.815 30.0288C107.815 30.1897 107.9 30.3506 107.984 30.4311H111.952C115.498 30.4311 116.343 29.7069 116.343 27.5345C116.174 26.4885 115.245 25.6035 114.148 25.4426H114.232ZM110.77 22.2242H111.53C112.543 22.2242 113.725 22.6265 113.725 23.7529C113.725 24.8794 113.219 25.2012 111.361 25.2012H110.77V22.2242ZM111.108 29.4656C110.855 29.3046 110.686 28.661 110.686 28.2587V26.0863H111.53C113.894 26.0863 114.401 27.2127 114.401 28.1782C114.401 29.1437 113.134 29.7069 112.037 29.7069C111.699 29.7069 111.361 29.6265 111.108 29.4656Z" fill="white"/>
</g>
</svg>
